<svg xmlns="http://www.w3.org/2000/svg" viewBox="0 0 2500 2500" version="1.1">
	<path d="M 1083.500 48.648 C 1033.794 51.090, 986.326 68.746, 948.500 98.863 C 931.707 112.234, 25.076 879.919, 20.719 884.456 C 8.549 897.133, 1.192 914.755, 0.272 933.437 C -0.780 954.813, 5.072 972.184, 18.731 988.223 C 45.725 1019.921, 93.165 1024.990, 125.493 999.632 C 127.689 997.909, 335.621 822.089, 587.564 608.921 C 839.507 395.753, 1047.757 219.887, 1050.342 218.109 C 1056.662 213.760, 1066.101 209.448, 1074 207.300 C 1083.121 204.820, 1104.983 204.860, 1114 207.373 C 1122.298 209.685, 1133.097 214.952, 1139.529 219.825 C 1142.295 221.920, 1314.645 367.587, 1522.529 543.530 C 1730.413 719.472, 1903.425 865.652, 1907 868.372 C 1924.082 881.373, 1945.191 886.381, 1966.921 882.586 C 1984.073 879.591, 1995.245 873.728, 2008.059 860.996 C 2017.587 851.530, 2023.897 841.848, 2027.522 831.133 C 2037.089 802.856, 2029.576 770.482, 2008.785 750.394 C 2003.573 745.359, 1257.225 113.599, 1241.288 100.733 C 1201.082 68.273, 1152.962 50.436, 1101 48.731 C 1094.675 48.523, 1086.800 48.486, 1083.500 48.648 M 1625.486 79.445 C 1617.327 80.939, 1608.303 84.405, 1600.228 89.145 C 1592.475 93.697, 1577.381 108.983, 1572.724 117 C 1562.709 134.243, 1559.792 159.574, 1565.585 178.998 C 1571.585 199.114, 1588.508 218.359, 1608.199 227.456 C 1623.918 234.719, 1615.760 234.307, 1752.227 234.719 L 1874.955 235.088 1875.239 359.294 L 1875.524 483.500 1877.823 491 C 1885.640 516.509, 1907.328 537.592, 1933 544.638 C 1937.860 545.972, 1943.032 546.409, 1953.500 546.371 C 1965.439 546.327, 1968.695 545.956, 1975.618 543.848 C 1996.844 537.386, 2014.916 521.464, 2024.434 500.840 C 2031.358 485.839, 2031 496.111, 2031 312.500 C 2031 128.889, 2031.358 139.161, 2024.434 124.160 C 2014.942 103.593, 1997.100 87.840, 1975.618 81.062 L 1967.500 78.500 1800 78.330 C 1667.311 78.196, 1631.042 78.427, 1625.486 79.445 M 372.249 1017.570 C 357.763 1020.745, 340.821 1031.400, 330.415 1043.882 C 323.451 1052.235, 316.702 1065.583, 314.332 1075.688 C 312.572 1083.194, 312.500 1099.369, 312.500 1488 C 312.500 1917.262, 312.292 1897.612, 317.093 1921.500 C 326.446 1968.034, 349.850 2010.519, 384.463 2043.794 C 422.168 2080.041, 467.454 2101.393, 521 2108.171 C 529.363 2109.230, 565.790 2109.500, 700 2109.500 C 888.217 2109.500, 875.551 2109.964, 891.774 2102.469 C 911.492 2093.358, 928.412 2074.126, 934.415 2053.998 C 938.582 2040.029, 938.253 2021.171, 933.587 2006.479 C 926.196 1983.203, 905.610 1963.424, 880.839 1955.797 L 873.500 1953.537 703 1952.982 C 543.059 1952.462, 532.128 1952.316, 526.500 1950.639 C 500.646 1942.931, 479.600 1922.289, 471.811 1897 L 469.501 1889.500 468.981 1484.500 C 468.486 1099.190, 468.373 1079.215, 466.672 1073.647 C 457.919 1044.998, 435.166 1023.172, 408.063 1017.426 C 399.835 1015.682, 380.513 1015.760, 372.249 1017.570 M 1743.108 1017.594 C 1681.943 1022.525, 1626.861 1033.811, 1570.842 1052.890 C 1454.356 1092.562, 1352.094 1160.604, 1270.465 1252.751 C 1192.174 1341.129, 1138.251 1445.669, 1111.466 1561 C 1090.636 1650.690, 1088.280 1752.843, 1104.926 1844.500 C 1121.211 1934.168, 1155.046 2020.373, 1204.029 2097 C 1271.651 2202.783, 1369.264 2291.097, 1479.566 2346.288 C 1565.343 2389.207, 1650.190 2412.724, 1746 2420.134 C 1767.215 2421.774, 1826.694 2421.779, 1848 2420.142 C 2018.568 2407.033, 2173.976 2335.858, 2293.917 2215.917 C 2405.016 2104.819, 2475.188 1961.716, 2494.436 1807 C 2498.520 1774.171, 2499.461 1757.553, 2499.448 1718.500 C 2499.431 1670.323, 2496.835 1638.865, 2489.378 1596.500 C 2467.297 1471.056, 2412.156 1355.356, 2328.053 1258 C 2311.946 1239.355, 2276.580 1203.959, 2258 1187.889 C 2141.982 1087.542, 2001.382 1029.047, 1848.500 1017.522 C 1823.903 1015.668, 1766.510 1015.707, 1743.108 1017.594 M 1763 1173.100 C 1661.674 1179.187, 1559.890 1215.395, 1478.500 1274.307 C 1422.065 1315.155, 1371.980 1367.921, 1336.216 1424.204 C 1275.367 1519.966, 1245.542 1631.229, 1250.882 1742.551 C 1255.176 1832.074, 1277.545 1910.176, 1321.323 1988.500 C 1354.180 2047.286, 1403.202 2104.240, 1459 2148.455 C 1536.252 2209.669, 1632.621 2249.767, 1730.500 2261.421 C 1774.035 2266.604, 1825.369 2266.282, 1870 2260.545 C 1963.938 2248.470, 2059.304 2208.227, 2133.958 2149.156 C 2200.346 2096.626, 2252.476 2032.005, 2288.566 1957.500 C 2319.378 1893.891, 2336.486 1830.399, 2342.050 1759 C 2343.466 1740.829, 2343.475 1695.856, 2342.067 1678 C 2335.324 1592.520, 2310.124 1512.501, 2266.958 1439.500 C 2225.340 1369.117, 2164.454 1305.728, 2095 1260.471 C 1997.042 1196.641, 1880.720 1166.029, 1763 1173.100 M 2056.715 1461.003 C 2041.078 1464.957, 2027.017 1473.418, 2017.207 1484.780 C 2014.490 1487.926, 1944.875 1580.500, 1862.506 1690.500 C 1780.137 1800.500, 1712.121 1891.165, 1711.359 1891.978 C 1710.155 1893.261, 1699.187 1882.683, 1628.236 1811.816 C 1570.217 1753.864, 1544.672 1729.009, 1540.202 1726.157 C 1533.051 1721.594, 1523.302 1717.708, 1514.500 1715.912 C 1505.205 1714.015, 1487.887 1714.491, 1478.713 1716.896 C 1462.392 1721.174, 1446.388 1732.064, 1436.197 1745.825 C 1425.375 1760.439, 1421 1773.843, 1421 1792.382 C 1421 1804.571, 1422.260 1812.197, 1425.727 1821 C 1431.523 1835.714, 1432.782 1837.097, 1519.839 1924.320 C 1565.302 1969.871, 1605.875 2009.973, 1610 2013.436 C 1651.550 2048.319, 1708.439 2058.990, 1760.315 2041.631 C 1786.585 2032.840, 1811.069 2016.173, 1829.547 1994.500 C 1832.360 1991.200, 1903.848 1896.250, 1988.409 1783.500 C 2105.867 1626.884, 2143.071 1576.612, 2146.038 1570.500 C 2151.263 1559.734, 2153.282 1550.773, 2153.361 1538 C 2153.577 1503.007, 2132.727 1473.735, 2099.500 1462.382 C 2088.560 1458.644, 2068.593 1458.001, 2056.715 1461.003" stroke="none" fill="#000000" fill-rule="evenodd"></path>
</svg>