<svg xmlns="http://www.w3.org/2000/svg" viewBox="0 0 2500 2500" version="1.1">
	<path d="M 1077.500 52.587 C 1029.023 57.402, 992.665 70.536, 957.115 96.074 C 940.580 107.953, 23.277 884.767, 17.394 891.872 C 6.388 905.167, 1.235 919.108, 0.341 938 C -0.716 960.361, 5.772 977.863, 21.321 994.600 C 36.783 1011.241, 55.220 1019, 79.298 1019 C 96.371 1019, 111.161 1014.116, 124.289 1004.142 C 127.705 1001.547, 336.825 824.841, 589 611.461 C 841.175 398.082, 1049.797 222.032, 1052.605 220.239 C 1064.627 212.559, 1078.276 208.859, 1094.433 208.898 C 1111.441 208.939, 1125.065 213.223, 1138.402 222.724 C 1141.099 224.644, 1314.333 370.934, 1523.368 547.812 C 1732.403 724.690, 1906.559 871.562, 1910.381 874.195 C 1939.747 894.425, 1981.702 890.253, 2007.564 864.531 C 2022.934 849.244, 2030.941 830.544, 2030.983 809.838 C 2031.028 787.119, 2023.216 768.323, 2007.313 752.886 C 2001.220 746.972, 1256.584 116.565, 1239.500 102.858 C 1208.293 77.820, 1166.997 60.111, 1126.500 54.402 C 1116.532 52.996, 1085.098 51.832, 1077.500 52.587 M 1623.500 83.491 C 1595.557 89.773, 1572.061 112.280, 1564.937 139.588 C 1562.337 149.558, 1562.080 167.207, 1564.383 177.734 C 1569.375 200.555, 1588.690 223.486, 1610.184 232.110 C 1624.336 237.789, 1614.969 237.412, 1750.224 237.745 L 1874.948 238.052 1875.255 362.776 C 1875.588 498.031, 1875.211 488.664, 1880.890 502.816 C 1889.401 524.028, 1912.006 543.248, 1934.770 548.629 C 1944.550 550.940, 1963.350 550.700, 1973.136 548.139 C 1998.583 541.478, 2020.235 520.572, 2028.172 495 L 2030.500 487.500 2030.500 315.500 L 2030.500 143.500 2027.847 135.722 C 2023.887 124.111, 2017.808 114.631, 2008.088 104.912 C 1998.369 95.192, 1988.889 89.113, 1977.278 85.153 L 1969.500 82.500 1799.500 82.321 C 1659.989 82.174, 1628.424 82.384, 1623.500 83.491 M 377.756 1020.017 C 362.353 1022.457, 347.532 1030.296, 335.414 1042.414 C 321.767 1056.061, 315.025 1070.288, 312.945 1089.828 C 312.251 1096.347, 312.018 1229.892, 312.230 1499.500 L 312.546 1899.500 314.691 1912.500 C 322.999 1962.842, 343.809 2005.236, 377.854 2041.172 C 415.450 2080.856, 469.777 2107.004, 525 2111.993 C 533.878 2112.795, 586.325 2113.025, 706 2112.787 C 889.448 2112.422, 875.488 2112.857, 889.980 2107.046 C 907.378 2100.068, 925.665 2081.152, 932.363 2063.202 C 936.092 2053.209, 937.314 2045.716, 937.209 2033.500 C 937.094 2020.210, 934.708 2010.044, 929.278 1999.706 C 919.443 1980.981, 903.046 1966.904, 883.167 1960.117 L 875.500 1957.500 705 1956.952 C 515.516 1956.343, 530.196 1956.908, 514.668 1949.621 C 505.213 1945.184, 500.138 1941.614, 492.308 1933.891 C 481.996 1923.721, 476.093 1913.848, 471.145 1898.500 C 469.677 1893.946, 469.487 1857.359, 469.015 1488.500 L 468.498 1083.500 466.180 1076 C 461.942 1062.283, 456.561 1053.567, 445.497 1042.503 C 434.280 1031.287, 425.225 1025.751, 412 1022.023 C 403.403 1019.600, 386.602 1018.615, 377.756 1020.017 M 1774.500 1019.588 C 1688.705 1023.078, 1615.219 1038.250, 1538.495 1068.314 C 1402.398 1121.643, 1283.163 1220.040, 1203.821 1344.500 C 1131.355 1458.173, 1093.996 1586.839, 1094.001 1722.721 C 1094.006 1835.024, 1118.612 1938.440, 1169.494 2040 C 1219.334 2139.482, 1296.617 2229.258, 1389.500 2295.572 C 1482.744 2362.144, 1594.053 2405.678, 1707.500 2419.944 C 1763.936 2427.041, 1828.863 2427.028, 1886 2419.909 C 2009.932 2404.466, 2129.571 2354.657, 2229 2277.109 C 2271.228 2244.174, 2316.693 2198.921, 2349.672 2157 C 2436.203 2047.007, 2487.083 1915.988, 2498.213 1774.500 C 2499.860 1753.562, 2499.826 1690.123, 2498.157 1669.500 C 2491.379 1585.764, 2471.815 1508.698, 2438.503 1434.508 C 2382.610 1310.031, 2290.517 1203.349, 2175.470 1129.807 C 2077.959 1067.474, 1967.323 1030.366, 1852.599 1021.514 C 1834.292 1020.102, 1789.203 1018.989, 1774.500 1019.588 M 1752.500 1177.501 C 1680.541 1183.537, 1614.064 1202.323, 1549.026 1235 C 1465.485 1276.974, 1389.904 1345.144, 1337.815 1425.500 C 1264.008 1539.360, 1235.472 1676.839, 1257.588 1812 C 1272.375 1902.366, 1311.533 1990.644, 1368.481 2062 C 1447.062 2160.461, 1555.439 2228.554, 1677 2255.842 C 1819.110 2287.743, 1967.893 2261.564, 2091.646 2182.885 C 2147.134 2147.607, 2200.914 2096.708, 2240.508 2042 C 2293.632 1968.597, 2328.634 1879.260, 2339.437 1789.500 C 2344.557 1746.960, 2344.557 1698.040, 2339.437 1655.500 C 2320.372 1497.087, 2231.585 1354.266, 2097 1265.518 C 2028.919 1220.624, 1949.848 1191.081, 1869.500 1180.518 C 1835.268 1176.018, 1785.484 1174.734, 1752.500 1177.501 M 1546 1411.499 C 1523.724 1415.992, 1503.034 1432.083, 1492.411 1453.176 C 1486.772 1464.375, 1484.755 1473.477, 1484.695 1488 C 1484.654 1497.929, 1485.093 1502.103, 1486.830 1508.291 C 1489.797 1518.865, 1494.733 1528.320, 1501.887 1537.133 C 1505.176 1541.185, 1547.945 1584.548, 1596.931 1633.495 L 1685.995 1722.491 1593.586 1814.995 C 1493.346 1915.339, 1494.056 1914.555, 1488.644 1930.929 C 1481.634 1952.140, 1483.265 1974.308, 1493.236 1993.355 C 1499.289 2004.917, 1514.260 2019.927, 1525.500 2025.703 C 1539.357 2032.824, 1546.380 2034.492, 1562.500 2034.492 C 1574.385 2034.492, 1577.628 2034.138, 1583.965 2032.152 C 1592.831 2029.373, 1601.624 2025.090, 1608.500 2020.203 C 1611.250 2018.248, 1654.789 1975.452, 1705.253 1925.100 L 1797.005 1833.551 1889.753 1926.123 C 1989.831 2026.014, 1988.495 2024.801, 2004.764 2030.485 C 2024.009 2037.209, 2048.199 2035.958, 2065.339 2027.352 C 2083.952 2018.007, 2099.058 2000.801, 2105.593 1981.500 C 2107.849 1974.837, 2108.381 1971.235, 2108.773 1959.950 C 2109.173 1948.424, 2108.927 1945.138, 2107.127 1937.950 C 2104.348 1926.856, 2099.232 1916.635, 2092.001 1907.728 C 2088.774 1903.752, 2046.060 1860.458, 1997.082 1811.517 L 1908.030 1722.535 1999.849 1630.517 C 2096.283 1533.875, 2098.819 1531.119, 2103.969 1517.354 C 2108.243 1505.930, 2109.215 1499.350, 2108.747 1485 C 2108.240 1469.468, 2105.776 1460.124, 2099.276 1449.092 C 2091.291 1435.541, 2075.432 1421.532, 2061.448 1415.676 C 2042.373 1407.688, 2015.111 1408.356, 1997.500 1417.244 C 1986.391 1422.850, 1978.915 1429.904, 1889.755 1518.895 L 1797.010 1611.465 1704.755 1519.334 C 1607.403 1422.114, 1605.449 1420.318, 1591.207 1414.968 C 1578.335 1410.132, 1559.821 1408.711, 1546 1411.499" stroke="none" fill="#000000" fill-rule="evenodd"></path>
</svg>