<svg xmlns="http://www.w3.org/2000/svg" viewBox="0 0 2500 2500" version="1.1">
	<path d="M 1083.500 48.648 C 1033.794 51.090, 986.326 68.746, 948.500 98.863 C 931.707 112.234, 25.076 879.919, 20.719 884.456 C 8.549 897.133, 1.192 914.755, 0.272 933.437 C -0.780 954.813, 5.072 972.184, 18.731 988.223 C 45.725 1019.921, 93.165 1024.990, 125.493 999.632 C 127.689 997.909, 335.621 822.089, 587.564 608.921 C 839.507 395.753, 1047.757 219.887, 1050.342 218.109 C 1056.662 213.760, 1066.101 209.448, 1074 207.300 C 1083.121 204.820, 1104.983 204.860, 1114 207.373 C 1122.295 209.684, 1133.101 214.955, 1139.500 219.809 C 1142.250 221.895, 1315.888 368.625, 1525.362 545.876 C 1734.836 723.126, 1908.086 869.508, 1910.362 871.169 C 1916.324 875.519, 1924.470 879.466, 1933.035 882.156 C 1939.467 884.175, 1942.507 884.494, 1955 884.459 C 1970.060 884.417, 1973.388 883.840, 1985 879.261 C 2002.503 872.360, 2017.526 857.735, 2026.479 838.883 C 2031.008 829.345, 2032.961 819.984, 2032.983 807.708 C 2033.020 786.599, 2026.457 769.025, 2013.203 754.747 C 2009.215 750.452, 1264.035 119.097, 1241.051 100.542 C 1201.101 68.287, 1152.835 50.432, 1101 48.731 C 1094.675 48.523, 1086.800 48.486, 1083.500 48.648 M 1625.486 79.445 C 1617.327 80.939, 1608.303 84.405, 1600.228 89.145 C 1592.475 93.697, 1577.381 108.983, 1572.724 117 C 1562.709 134.243, 1559.792 159.574, 1565.585 178.998 C 1571.585 199.114, 1588.508 218.359, 1608.199 227.456 C 1623.918 234.719, 1615.760 234.307, 1752.227 234.719 L 1874.955 235.088 1875.239 359.294 L 1875.524 483.500 1877.823 491 C 1885.640 516.509, 1907.328 537.592, 1933 544.638 C 1937.860 545.972, 1943.032 546.409, 1953.500 546.371 C 1965.439 546.327, 1968.695 545.956, 1975.618 543.848 C 1996.844 537.386, 2014.916 521.464, 2024.434 500.840 C 2031.358 485.839, 2031 496.111, 2031 312.500 C 2031 128.889, 2031.358 139.161, 2024.434 124.160 C 2014.942 103.593, 1997.100 87.840, 1975.618 81.062 L 1967.500 78.500 1800 78.330 C 1667.311 78.196, 1631.042 78.427, 1625.486 79.445 M 372.249 1017.570 C 357.763 1020.745, 340.821 1031.400, 330.415 1043.882 C 323.451 1052.235, 316.702 1065.583, 314.332 1075.688 C 312.572 1083.194, 312.500 1099.369, 312.500 1488 C 312.500 1917.262, 312.292 1897.612, 317.093 1921.500 C 326.446 1968.034, 349.850 2010.519, 384.463 2043.794 C 422.168 2080.041, 467.454 2101.393, 521 2108.171 C 529.363 2109.230, 565.790 2109.500, 700 2109.500 C 888.217 2109.500, 875.551 2109.964, 891.774 2102.469 C 911.492 2093.358, 928.412 2074.126, 934.415 2053.998 C 938.582 2040.029, 938.253 2021.171, 933.587 2006.479 C 926.196 1983.203, 905.610 1963.424, 880.839 1955.797 L 873.500 1953.537 703 1952.982 C 543.059 1952.462, 532.128 1952.316, 526.500 1950.639 C 500.646 1942.931, 479.600 1922.289, 471.811 1897 L 469.501 1889.500 468.981 1484.500 C 468.486 1099.190, 468.373 1079.215, 466.672 1073.647 C 457.919 1044.998, 435.166 1023.172, 408.063 1017.426 C 399.835 1015.682, 380.513 1015.760, 372.249 1017.570 M 1743.108 1017.594 C 1681.943 1022.525, 1626.861 1033.811, 1570.842 1052.890 C 1454.356 1092.562, 1352.094 1160.604, 1270.465 1252.751 C 1192.174 1341.129, 1138.251 1445.669, 1111.466 1561 C 1090.636 1650.690, 1088.280 1752.843, 1104.926 1844.500 C 1121.211 1934.168, 1155.046 2020.373, 1204.029 2097 C 1271.651 2202.783, 1369.264 2291.097, 1479.566 2346.288 C 1565.343 2389.207, 1650.190 2412.724, 1746 2420.134 C 1767.215 2421.774, 1826.694 2421.779, 1848 2420.142 C 2018.568 2407.033, 2173.976 2335.858, 2293.917 2215.917 C 2405.016 2104.819, 2475.188 1961.716, 2494.436 1807 C 2498.520 1774.171, 2499.461 1757.553, 2499.448 1718.500 C 2499.431 1670.323, 2496.835 1638.865, 2489.378 1596.500 C 2467.297 1471.056, 2412.156 1355.356, 2328.053 1258 C 2311.946 1239.355, 2276.580 1203.959, 2258 1187.889 C 2141.982 1087.542, 2001.382 1029.047, 1848.500 1017.522 C 1823.903 1015.668, 1766.510 1015.707, 1743.108 1017.594 M 1763 1173.100 C 1692.094 1177.360, 1623.496 1195.419, 1558.500 1226.939 C 1501.375 1254.642, 1455.823 1287.116, 1410.469 1332.469 C 1361.747 1381.192, 1326.224 1432.548, 1298.032 1495.026 C 1245.132 1612.256, 1235.852 1746.889, 1272.038 1872.133 C 1289.362 1932.092, 1320.665 1994.985, 1358.429 2045.709 C 1358.514 2045.823, 1530.819 1873.681, 1741.329 1663.171 L 2124.075 1280.424 2111.787 1271.841 C 2008.578 1199.748, 1887.941 1165.595, 1763 1173.100 M 1852.041 1774.459 C 1641.690 1984.811, 1469.790 2157.081, 1470.042 2157.281 C 1470.294 2157.482, 1474.325 2160.371, 1479 2163.702 C 1552.974 2216.407, 1641.576 2250.833, 1730.500 2261.421 C 1774.035 2266.604, 1825.369 2266.282, 1870 2260.545 C 1963.938 2248.470, 2059.304 2208.227, 2133.958 2149.156 C 2200.346 2096.626, 2252.476 2032.005, 2288.566 1957.500 C 2319.378 1893.891, 2336.486 1830.399, 2342.050 1759 C 2343.466 1740.829, 2343.475 1695.856, 2342.067 1678 C 2334.897 1587.108, 2306.935 1502.581, 2258.705 1426 C 2251.891 1415.182, 2235.753 1392.047, 2235 1392.019 C 2234.724 1392.009, 2062.393 1564.106, 1852.041 1774.459" stroke="none" fill="#000000" fill-rule="evenodd"></path>
</svg>