<svg xmlns="http://www.w3.org/2000/svg" viewBox="0 0 2500 2500" version="1.1">
	<path d="M 1076 52.590 C 1028.257 56.712, 986.397 72.128, 951.599 98.404 C 943.162 104.775, 29.781 877.179, 22.156 884.391 C 13.035 893.019, 5.409 904.847, 1.596 916.285 C 0.342 920.045, -0 925.472, -0 941.614 C -0 961.450, 0.091 962.385, 2.622 968.712 C 10.537 988.497, 27.548 1006.080, 46.044 1013.596 C 56.467 1017.831, 65.931 1019.277, 79.939 1018.773 C 95.804 1018.203, 105.261 1015.265, 117.525 1007.098 C 122.148 1004.019, 331.446 827.575, 582.631 615 C 833.816 402.425, 1041.844 226.525, 1044.915 224.111 C 1065.989 207.550, 1098.411 204.124, 1124.329 215.720 C 1127.723 217.238, 1133.217 220.532, 1136.538 223.040 C 1139.858 225.547, 1313.709 372.405, 1522.872 549.391 C 1732.035 726.378, 1906.016 873.175, 1909.497 875.609 C 1923.033 885.071, 1934.308 888.420, 1952.500 888.382 C 1970.364 888.344, 1981.150 885.330, 1995 876.503 C 2010.608 866.557, 2023.628 848.944, 2028.637 831 C 2031.408 821.074, 2031.169 800.095, 2028.165 789.557 C 2024.461 776.567, 2018.762 766.832, 2009.042 756.895 C 2000.688 748.356, 1247.385 110.473, 1231.401 98.404 C 1201.477 75.809, 1162.827 59.918, 1124.514 54.457 C 1114.448 53.023, 1084.390 51.866, 1076 52.590 M 1623.075 83.087 C 1611.489 85.360, 1601.733 89.805, 1591.410 97.513 C 1565.780 116.650, 1554.470 149.975, 1563.071 181.012 C 1570.102 206.387, 1591.501 227.866, 1617.500 235.645 C 1623.108 237.323, 1631.652 237.460, 1748.228 237.743 L 1872.955 238.045 1873.228 363.273 L 1873.500 488.500 1876.224 496.500 C 1884.680 521.331, 1906.162 541.677, 1930.700 548.097 C 1940.699 550.713, 1959.366 550.960, 1969.319 548.608 C 1976.964 546.802, 1988.291 541.772, 1994.856 537.270 C 2006.066 529.582, 2018.611 514.224, 2023.491 502.215 C 2029.305 487.906, 2029.085 495.807, 2028.780 312.500 L 2028.500 144.500 2026.136 137.500 C 2016.682 109.504, 1994.716 89.120, 1967.930 83.485 C 1961.835 82.203, 1938.068 82.015, 1794.185 82.110 C 1702.508 82.170, 1625.509 82.610, 1623.075 83.087 M 375.831 1019.955 C 359.252 1022.996, 347.009 1029.234, 334.633 1040.947 C 324.032 1050.979, 316.779 1062.835, 312.763 1076.691 L 310.500 1084.500 310.500 1492 C 310.500 1879.312, 310.589 1900.070, 312.298 1911 C 318.755 1952.298, 333.523 1987.834, 357.492 2019.753 C 396.652 2071.899, 458.302 2106.265, 523 2112.012 C 531.735 2112.788, 586.253 2113.029, 704 2112.811 L 872.500 2112.500 879.500 2110.136 C 904.610 2101.657, 923.307 2083.510, 931.672 2059.500 C 934.290 2051.983, 934.457 2050.504, 934.436 2035 C 934.415 2019.805, 934.202 2017.866, 931.736 2010.479 C 924.124 1987.682, 904.559 1968.113, 881.500 1960.234 L 873.500 1957.500 703 1956.979 L 532.500 1956.458 524.864 1954.299 C 499.137 1947.026, 478.374 1927.105, 469.835 1901.500 L 467.500 1894.500 466.955 1489.500 C 466.365 1051.084, 466.779 1083.348, 461.558 1069 C 455.642 1052.741, 439.422 1035.225, 422.339 1026.648 C 410.522 1020.715, 388.759 1017.583, 375.831 1019.955 M 1779 1020.620 C 1745.286 1024.828, 1714.391 1038.452, 1688.915 1060.348 C 1676.432 1071.076, 1662.810 1088.399, 1653.803 1105 C 1651.863 1108.575, 1618.175 1196.199, 1578.940 1299.721 L 1507.603 1487.941 1366.052 1488.259 C 1225.551 1488.575, 1224.431 1488.594, 1215.218 1490.717 C 1181.390 1498.515, 1150.671 1516.339, 1130.282 1540 C 1083.833 1593.902, 1078.696 1669.776, 1117.529 1728.361 C 1123.694 1737.662, 1133.968 1749.594, 1142 1756.782 C 1145.025 1759.489, 1197 1796.252, 1257.500 1838.477 C 1318 1880.701, 1367.827 1915.542, 1368.226 1915.900 C 1368.625 1916.259, 1340.826 1981.115, 1306.450 2060.026 C 1272.074 2138.937, 1242.635 2207.100, 1241.031 2211.500 C 1234.393 2229.705, 1231.694 2245.416, 1231.670 2266 C 1231.606 2320.657, 1258.679 2370.119, 1305.252 2400.432 C 1348.494 2428.577, 1405.881 2433.634, 1453.106 2413.462 C 1457.723 2411.490, 1536.723 2367.572, 1628.663 2315.867 L 1795.826 2221.858 1961.663 2315.083 C 2052.873 2366.357, 2130.650 2409.750, 2134.500 2411.514 C 2151.410 2419.258, 2167.921 2423.428, 2188.500 2425.152 C 2200.383 2426.147, 2204.617 2426.079, 2216.500 2424.702 C 2256.341 2420.083, 2287.192 2405.234, 2314.500 2377.534 C 2344.252 2347.355, 2360.052 2308.889, 2360.108 2266.500 C 2360.137 2245.011, 2356.987 2227.554, 2349.619 2208.369 C 2347.746 2203.491, 2318.664 2136.275, 2284.992 2059 C 2251.321 1981.725, 2223.710 1917.953, 2223.636 1917.285 C 2223.561 1916.617, 2273.450 1881.187, 2334.500 1838.552 C 2432.342 1770.222, 2446.632 1759.916, 2455.050 1751.606 C 2476.701 1730.233, 2491.181 1702.876, 2497.715 1671 C 2500.255 1658.610, 2500.212 1624.827, 2497.641 1613 C 2493.605 1594.430, 2485.139 1573.606, 2475.485 1558.500 C 2454.276 1525.315, 2417.591 1500.046, 2377.199 1490.800 L 2367.500 1488.580 2225.826 1488.260 L 2084.153 1487.941 2081.011 1479.720 C 2079.283 1475.199, 2047.473 1391.175, 2010.324 1293 C 1973.174 1194.825, 1941.438 1111.651, 1939.800 1108.170 C 1935.653 1099.356, 1924.542 1083.051, 1916.042 1073.304 C 1900.023 1054.935, 1874.366 1037.867, 1849.500 1029.036 C 1833.240 1023.261, 1819.619 1020.921, 1800 1020.531 C 1790.375 1020.340, 1780.925 1020.380, 1779 1020.620 M 1792.138 1179.187 C 1791.665 1180.459, 1755.635 1275.482, 1712.071 1390.350 C 1657.689 1533.745, 1631.554 1601.434, 1628.682 1606.331 C 1619.854 1621.386, 1603.033 1634.803, 1585.500 1640.775 L 1577.500 1643.500 1415.238 1644 L 1252.975 1644.500 1381.175 1734 C 1451.685 1783.225, 1512.471 1825.950, 1516.254 1828.945 C 1528.574 1838.697, 1537.948 1853.613, 1542.118 1870.097 C 1544.983 1881.427, 1545.022 1897.511, 1542.210 1908 C 1541.103 1912.125, 1505.954 1994.113, 1464.099 2090.195 C 1422.245 2186.277, 1388 2265.604, 1388 2266.476 C 1388 2268.741, 1390.682 2269.465, 1393.814 2268.044 C 1395.291 2267.374, 1478.625 2220.647, 1579 2164.207 C 1679.375 2107.767, 1764.047 2060.555, 1767.161 2059.291 C 1785.501 2051.845, 1808.794 2052.424, 1827.480 2060.789 C 1830.791 2062.271, 1915.769 2109.725, 2016.321 2166.242 C 2116.872 2222.759, 2199.979 2269, 2201.003 2269 C 2202.027 2269, 2203.130 2268.167, 2203.453 2267.149 C 2203.831 2265.958, 2176.871 2202.876, 2127.916 2090.399 C 2086.047 1994.204, 2050.886 1912.125, 2049.780 1908 C 2046.996 1897.617, 2047.055 1880.498, 2049.913 1869.622 C 2054.416 1852.486, 2064.343 1837.401, 2077.747 1827.326 C 2082.011 1824.120, 2142.540 1781.673, 2212.256 1732.999 L 2339.012 1644.500 2176.756 1643.980 C 1997.773 1643.406, 2012.032 1643.947, 1997.554 1637.172 C 1981.932 1629.862, 1968.538 1617.246, 1961.182 1602.913 C 1958.807 1598.286, 1921.379 1500.675, 1878.009 1386 L 1799.154 1177.500 1796.076 1177.187 C 1793.622 1176.937, 1792.825 1177.341, 1792.138 1179.187" stroke="none" fill="#000000" fill-rule="evenodd"></path>
</svg>