<svg xmlns="http://www.w3.org/2000/svg" viewBox="0 0 2500 2500" version="1.1">
	<path d="M 1077.856 27.443 C 1069.699 29.152, 1060.738 32.706, 1053.392 37.145 C 1047.552 40.675, 35.525 896.326, 23.579 907.833 C 6.928 923.874, -1.156 945.054, 0.315 968.788 C 0.646 974.130, 1.642 981.200, 2.528 984.500 C 6.426 999.024, 17.069 1014.760, 29.923 1025.005 C 55.153 1045.114, 90.804 1047.379, 118.218 1030.615 C 121.920 1028.352, 341.890 842.900, 607.042 618.500 C 872.193 394.100, 1090.222 209.680, 1091.551 208.678 L 1093.967 206.857 1577.234 615.762 C 1843.030 840.660, 2062.810 1026.321, 2065.633 1028.343 C 2071.901 1032.832, 2081.451 1037.246, 2090.058 1039.631 C 2094.814 1040.949, 2099.901 1041.396, 2109.500 1041.340 C 2120.557 1041.275, 2123.845 1040.862, 2131.500 1038.581 C 2149.199 1033.305, 2164.111 1022.157, 2174.645 1006.325 C 2195.310 975.267, 2190.666 932.684, 2163.855 907.391 C 2158.075 901.938, 1145.940 45.693, 1139.500 40.808 C 1133.197 36.028, 1122.287 30.677, 1114.500 28.549 C 1106.196 26.279, 1086.283 25.678, 1077.856 27.443 M 1627.831 105.013 C 1610.409 107.990, 1595.799 115.977, 1583.266 129.375 C 1567.808 145.900, 1560.626 167.651, 1563.026 190.677 C 1564.184 201.793, 1566.166 208.514, 1571.082 218 C 1579.004 233.286, 1590.744 244.746, 1606.500 252.573 C 1623.154 260.846, 1614.077 260.338, 1752.227 260.735 L 1874.955 261.088 1875.239 385.294 L 1875.524 509.500 1877.823 517 C 1885.641 542.513, 1907.365 563.627, 1933 570.630 C 1942.990 573.359, 1964.048 573.144, 1974.309 570.208 C 2001.246 562.501, 2022.606 540.453, 2029.009 513.747 C 2030.937 505.703, 2030.986 501.401, 2030.993 339.208 C 2030.999 191.139, 2030.826 172.071, 2029.411 165.208 C 2023.895 138.449, 2002.197 115.166, 1975 106.819 L 1967.500 104.518 1800 104.367 C 1707.875 104.283, 1630.399 104.574, 1627.831 105.013 M 371.223 1043.935 C 344.212 1050.570, 320.724 1074.482, 314.285 1101.898 C 312.609 1109.035, 312.500 1119.683, 312.500 1276 C 312.500 1464.190, 311.887 1449.628, 320.538 1466.812 C 328.697 1483.019, 340.234 1494.491, 356.500 1502.574 C 367.506 1508.043, 377.020 1510.120, 391.059 1510.120 C 408.265 1510.120, 421.025 1506.251, 434.470 1496.955 C 452.699 1484.354, 464.971 1465.096, 467.963 1444.398 C 468.593 1440.043, 468.968 1377.923, 468.980 1275.881 C 469.002 1098.817, 469.177 1104.379, 463.136 1090.003 C 453.547 1067.179, 431.438 1048.377, 408.471 1043.511 C 398.820 1041.467, 380.417 1041.676, 371.223 1043.935 M 1777.112 1043.985 C 1763.125 1047.762, 1751.873 1054.387, 1741.176 1065.145 C 1734.381 1071.979, 1726.800 1083.255, 1723.999 1090.696 C 1718.758 1104.614, 1718.946 1097.196, 1719.233 1279.267 L 1719.500 1448.500 1722.224 1456.500 C 1729.002 1476.401, 1743.740 1493.207, 1762.500 1502.425 C 1773.989 1508.071, 1783.399 1510.136, 1797.480 1510.102 C 1820.251 1510.046, 1837.815 1502.402, 1853.776 1485.599 C 1861.787 1477.166, 1867.743 1467.194, 1871.755 1455.500 L 1874.500 1447.500 1874.500 1276.500 L 1874.500 1105.500 1872.153 1098.025 C 1864.305 1073.031, 1845.581 1053.577, 1821.500 1045.399 C 1814.555 1043.040, 1811.587 1042.636, 1799 1042.336 C 1786.894 1042.047, 1783.280 1042.319, 1777.112 1043.985 M 2110.500 1666.160 C 2096.568 1667.177, 2085.217 1669.774, 2076.142 1674.021 C 2052.586 1685.044, 2035.895 1707.535, 2032.001 1733.500 C 2031.280 1738.306, 2031.037 1841.272, 2031.226 2062 L 2031.500 2383.500 2033.775 2390.829 C 2042.885 2420.169, 2065.045 2440.534, 2094.500 2446.633 C 2104.326 2448.668, 2153.697 2449.634, 2169.500 2448.101 C 2239.286 2441.332, 2303.053 2416.681, 2357.618 2375.379 C 2427.036 2322.834, 2476.744 2244.926, 2493.873 2161.822 C 2500.254 2130.865, 2500.161 2132.600, 2499.740 2052.500 C 2499.311 1971.079, 2499.655 1975.681, 2491.517 1942.289 C 2471.839 1861.537, 2424.063 1789.406, 2356.355 1738.227 C 2286.892 1685.720, 2198.296 1659.751, 2110.500 1666.160 M 349.500 1667.618 C 306.721 1672.846, 266.989 1690.308, 232.860 1718.879 C 191.654 1753.375, 163.563 1805.455, 156.867 1859.766 C 155.450 1871.255, 156.709 1894.805, 159.562 1910.207 C 170.537 1969.449, 201.780 2018.035, 257.418 2062.385 C 281.999 2081.978, 301.038 2094.570, 361.023 2130.907 C 403.620 2156.711, 423.706 2170.865, 439.844 2186.452 C 451.089 2197.312, 457.165 2205.139, 461.617 2214.500 C 469.480 2231.032, 469.829 2241.479, 462.995 2255.677 C 457.348 2267.408, 445.305 2279.684, 434 2285.234 C 419.778 2292.216, 424.026 2291.967, 318.500 2292.003 C 213.312 2292.038, 216.098 2291.882, 202.117 2298.521 C 180.142 2308.958, 164.604 2327.302, 158.371 2350.169 C 155.675 2360.063, 155.903 2380.223, 158.827 2390.443 C 167.195 2419.690, 192.289 2442.413, 221.209 2446.931 C 230.626 2448.402, 420.113 2448.528, 431.335 2447.070 C 462.587 2443.011, 494.038 2432.213, 519 2416.971 C 575.134 2382.695, 613.141 2326.214, 623.443 2261.761 C 626.809 2240.703, 624.234 2209.923, 616.855 2183 C 605.664 2142.173, 579.028 2100.856, 543.033 2068.489 C 514.956 2043.242, 492.655 2027.591, 435.500 1993.025 C 374.876 1956.360, 357.128 1944.007, 338.920 1925.799 C 325.016 1911.895, 317.488 1899.301, 314.300 1884.611 C 312.245 1875.142, 313.200 1869.096, 318.425 1858.500 C 324.391 1846.403, 334.596 1836.088, 347.099 1829.517 C 360.246 1822.609, 355.487 1822.888, 463.785 1822.665 C 554.799 1822.478, 561.911 1822.340, 567.500 1820.657 C 593.741 1812.754, 614.908 1791.793, 622.190 1766.500 C 625.534 1754.886, 625.511 1733.803, 622.142 1723.025 C 614.341 1698.067, 595.574 1678.567, 571.500 1670.402 C 561.594 1667.043, 564.229 1667.121, 447.500 1666.708 C 382.598 1666.478, 356.875 1666.717, 349.500 1667.618 M 992 1667.668 C 948.377 1671.999, 903.402 1690.490, 868.500 1718.443 C 858.638 1726.342, 842.115 1742.891, 833.499 1753.500 C 806.278 1787.018, 788.693 1828.315, 782.827 1872.500 C 781.767 1880.488, 781.500 1917.911, 781.500 2058.500 C 781.500 2224.840, 781.602 2235.159, 783.352 2246.500 C 791.388 2298.557, 813.452 2342.433, 849.994 2379.025 C 886.600 2415.681, 929.865 2437.520, 982 2445.656 C 997.982 2448.150, 1032.920 2448.159, 1049 2445.673 C 1090.105 2439.317, 1125.803 2424.130, 1159.500 2398.663 C 1169.064 2391.434, 1191.478 2369.308, 1199.237 2359.436 C 1224.505 2327.285, 1241.202 2288.827, 1247.710 2247.790 C 1249.381 2237.248, 1249.500 2224.644, 1249.500 2057.500 C 1249.500 1859.243, 1249.870 1871.433, 1243.015 1844 C 1219.672 1750.594, 1141.502 1681.106, 1045.630 1668.538 C 1034.984 1667.142, 1002.585 1666.617, 992 1667.668 M 1466.072 1668.553 C 1462.537 1669.320, 1456.277 1671.546, 1452.161 1673.501 C 1430.174 1683.942, 1414.898 1701.937, 1408.298 1725.169 C 1406.589 1731.187, 1406.500 1743.918, 1406.500 1983 C 1406.500 2222.835, 1406.586 2235.057, 1408.352 2246.500 C 1416.388 2298.557, 1438.452 2342.433, 1474.994 2379.025 C 1511.590 2415.672, 1554.605 2437.392, 1607 2445.681 C 1617.535 2447.347, 1626.559 2447.500, 1714.500 2447.500 C 1804.345 2447.500, 1810.917 2447.383, 1817 2445.677 C 1843.130 2438.350, 1864.836 2417.041, 1872.190 2391.500 C 1875.534 2379.886, 1875.511 2358.803, 1872.142 2348.025 C 1864.356 2323.116, 1845.853 2303.855, 1821.500 2295.308 L 1813.500 2292.500 1722 2291.968 C 1637.955 2291.480, 1629.889 2291.288, 1623 2289.613 C 1596.601 2283.193, 1575.045 2263.319, 1566.117 2237.167 L 1563.500 2229.500 1562.991 1981 L 1562.482 1732.500 1560.309 1724.856 C 1552.449 1697.207, 1529.036 1674.497, 1502.303 1668.590 C 1493.445 1666.633, 1475.012 1666.614, 1466.072 1668.553 M 1002.831 1823.955 C 976.810 1828.728, 956.062 1844.628, 945.001 1868.271 C 937.501 1884.301, 937.911 1872.667, 938.222 2061 L 938.500 2229.500 941.117 2237.167 C 950.050 2263.334, 972.164 2283.697, 997.881 2289.436 C 1007.163 2291.508, 1023.377 2291.567, 1033.114 2289.565 C 1037.214 2288.722, 1044.505 2286.069, 1049.501 2283.603 C 1070.065 2273.452, 1084.951 2255.448, 1091.337 2233 C 1093.469 2225.505, 1093.471 2225.388, 1093.784 2064.500 C 1093.990 1958.428, 1093.744 1900.207, 1093.063 1893.849 C 1090.888 1873.529, 1084.708 1860.708, 1070 1846 C 1059.325 1835.325, 1050.042 1829.703, 1037 1826.017 C 1028.606 1823.644, 1010.486 1822.550, 1002.831 1823.955 M 2188 2056.981 C 2188 2274.433, 2188.088 2285.999, 2189.750 2285.987 C 2193.778 2285.958, 2218.547 2276.741, 2229.920 2271.040 C 2245.108 2263.427, 2255.558 2256.727, 2268.530 2246.285 C 2305.946 2216.170, 2331.820 2173.406, 2341.475 2125.722 C 2343.995 2113.273, 2344 2113.138, 2344 2057.755 C 2344 1997.076, 2343.824 1994.642, 2337.927 1973.709 C 2321.702 1916.109, 2281.602 1868.302, 2227.988 1842.638 C 2216.066 1836.931, 2198.718 1830.384, 2190.750 1828.583 L 2188 1827.962 2188 2056.981" stroke="none" fill="#000000" fill-rule="evenodd"></path>
</svg>