<svg xmlns="http://www.w3.org/2000/svg" viewBox="0 0 2500 2500" version="1.1">
	<path d="M 531.763 0.970 C 504.501 5.924, 480.768 26.546, 471.308 53.500 L 468.500 61.500 468.196 108.711 L 467.892 155.922 339.696 156.261 C 197.280 156.639, 204.911 156.298, 176.357 163.550 C 80.691 187.844, 9.645 271.080, 0.994 369 C 0.198 378.007, -0.022 560.876, 0.208 1023.500 C 0.512 1638.299, 0.603 1665.945, 2.340 1676 C 11.054 1726.419, 31.956 1768.246, 65.995 1803.374 C 102.403 1840.947, 147.767 1864.405, 200.036 1872.684 C 210.944 1874.412, 227.540 1874.500, 542 1874.500 C 821.888 1874.500, 873.342 1874.286, 878 1873.101 C 906.855 1865.761, 930.208 1841.396, 936.084 1812.500 C 937.973 1803.209, 937.478 1785.901, 935.056 1776.588 C 928.618 1751.828, 907.988 1730.335, 882.500 1721.835 L 875.500 1719.500 549 1718.998 L 222.500 1718.495 214.745 1716.287 C 185.479 1707.955, 163.779 1684.968, 157.834 1656 C 156.734 1650.640, 156.500 1573.362, 156.500 1215.500 L 156.500 781.500 937.500 781.500 L 1718.500 781.500 1719.029 906.500 C 1719.615 1045.019, 1719.068 1034.243, 1726.291 1049.347 C 1737.267 1072.297, 1758.336 1088.263, 1783.430 1092.647 C 1824.771 1099.869, 1865.047 1072.633, 1873.420 1031.792 C 1874.841 1024.860, 1875 991.578, 1875 701.216 C 1875 476.893, 1874.669 375.013, 1873.917 367.424 C 1864.234 269.736, 1793.695 187.688, 1698.643 163.550 C 1670.070 156.293, 1677.847 156.638, 1534.250 156.261 L 1405 155.922 1405 112.419 C 1405 63.830, 1404.565 59.444, 1398.434 46.160 C 1388.650 24.960, 1371.418 9.873, 1348.975 2.858 C 1342.639 0.877, 1339.366 0.521, 1327.500 0.518 C 1311.135 0.514, 1304.688 1.899, 1292.359 8.068 C 1273.228 17.641, 1258.809 34.538, 1251.885 55.500 C 1249.626 62.341, 1249.565 63.559, 1249.224 109.250 L 1248.875 156 936.492 156 L 624.110 156 623.774 109.750 C 623.439 63.672, 623.429 63.470, 620.938 55.487 C 613.201 30.692, 592.901 10.437, 568.513 3.177 C 559.656 0.541, 540.465 -0.612, 531.763 0.970 M 219.075 314.087 C 196.336 318.549, 176.016 333.990, 164.956 355.213 C 162.746 359.456, 159.950 366.431, 158.743 370.713 L 156.549 378.500 156.234 501.750 L 155.919 625 937.500 625 L 1719.081 625 1718.766 501.750 L 1718.451 378.500 1716.257 370.713 C 1709.012 345.001, 1689.404 324.616, 1663.500 315.865 L 1656.500 313.500 1530.805 313.228 L 1405.109 312.955 1404.777 359.728 C 1404.452 405.639, 1404.403 406.629, 1402.109 413.500 C 1394.036 437.685, 1375.894 456.569, 1353.074 464.541 C 1336.728 470.253, 1316.569 470.106, 1300.270 464.158 C 1277.554 455.867, 1258.817 436.068, 1251.858 413 C 1249.675 405.763, 1249.584 403.877, 1249.243 359.250 L 1248.890 313 936.508 313 L 624.126 313 623.738 359.250 C 623.400 399.506, 623.124 406.278, 621.606 411.500 C 618.942 420.668, 613.567 430.844, 607.111 438.944 C 570.400 485.005, 499.107 476.342, 474.590 422.840 C 468.310 409.137, 468 406.043, 468 357.053 L 468 313 345.750 313.110 C 278.512 313.170, 221.509 313.610, 219.075 314.087 M 1764.475 1244.537 C 1740.864 1247.117, 1713.138 1253.771, 1689 1262.652 C 1683.775 1264.574, 1671.850 1269.895, 1662.500 1274.476 C 1639.736 1285.629, 1621.100 1297.443, 1603.478 1311.893 C 1591.716 1321.538, 1126.058 1733.700, 1117.690 1741.873 C 1101.405 1757.777, 1094 1775.285, 1094 1797.882 C 1094 1814.707, 1097.243 1826.205, 1105.702 1839.372 C 1121.955 1864.668, 1146.982 1877.380, 1177.280 1875.726 C 1192.272 1874.908, 1204.978 1870.500, 1216.483 1862.127 C 1219.224 1860.132, 1227.774 1852.937, 1235.483 1846.137 L 1249.500 1833.775 1250.027 2064.637 C 1250.615 2321.724, 1250.028 2300.888, 1257.484 2329.516 C 1266.456 2363.963, 1281.969 2394.219, 1304.372 2420.965 C 1334.712 2457.186, 1371.980 2481.473, 1420.609 2496.713 L 1429.500 2499.500 1795 2499.757 L 2160.500 2500.015 2171.330 2496.994 C 2187.138 2492.584, 2199.752 2487.656, 2215 2479.931 C 2275.810 2449.123, 2319.942 2394.110, 2336.567 2328.389 C 2343.915 2299.344, 2343.355 2319.516, 2343.958 2061.868 L 2344.500 1830.236 2359 1843.166 C 2382.491 1864.114, 2388.962 1868.423, 2404.035 1873.156 C 2410.391 1875.152, 2413.580 1875.498, 2425.500 1875.486 C 2441.742 1875.470, 2448.220 1874.095, 2460.500 1868.055 C 2475.390 1860.732, 2488.561 1847.623, 2496.036 1832.687 L 2500 1824.768 2500 1798.404 C 2500 1775.972, 2499.747 1771.404, 2498.306 1767.770 C 2495.577 1760.893, 2490.529 1752.922, 2484.996 1746.750 C 2480.440 1741.669, 2017.075 1330.863, 1996.588 1313.741 C 1950.717 1275.406, 1892.573 1250.932, 1832 1244.463 C 1815.463 1242.697, 1780.966 1242.735, 1764.475 1244.537 M 1782.500 1400.098 C 1751.682 1403.304, 1721.926 1416.457, 1696.985 1437.899 C 1693.401 1440.979, 1626.464 1500.142, 1548.235 1569.372 L 1406 1695.244 1406.008 1982.872 C 1406.013 2167.976, 1406.373 2273.609, 1407.016 2279.223 C 1409.044 2296.926, 1415.211 2310.547, 1426.949 2323.249 C 1439.148 2336.450, 1453.693 2344.541, 1470.490 2347.470 C 1477.410 2348.677, 1487.986 2349, 1520.573 2349 L 1561.885 2349 1562.256 2218.750 C 1562.616 2092.061, 1562.684 2088.145, 1564.731 2075.500 C 1568.982 2049.252, 1575.250 2029.321, 1586.431 2006.500 C 1622.640 1932.598, 1693.045 1883.851, 1775 1875.940 C 1790.044 1874.488, 1817.032 1875.238, 1832 1877.525 C 1908.061 1889.144, 1973.781 1937.455, 2007.451 2006.500 C 2017.269 2026.634, 2023.804 2046.711, 2028.283 2070.500 C 2030.301 2081.215, 2030.364 2084.965, 2030.708 2215.250 L 2031.062 2349 2072.900 2349 C 2118.893 2349, 2125.945 2348.380, 2138.624 2343.220 C 2148.535 2339.187, 2156.393 2333.749, 2165 2324.967 C 2173.025 2316.780, 2177.727 2309.727, 2181.670 2299.965 C 2187.286 2286.062, 2186.969 2305.043, 2186.917 1985.500 L 2186.868 1690.500 2135.684 1645.350 C 2107.533 1620.517, 2042.200 1562.757, 1990.500 1516.994 C 1938.800 1471.230, 1892.454 1430.882, 1887.508 1427.332 C 1858.072 1406.199, 1819.648 1396.234, 1782.500 1400.098 M 1788 2032.030 C 1776.938 2033.395, 1771.837 2034.903, 1762.180 2039.664 C 1746.721 2047.285, 1731.027 2063.877, 1724.954 2079.020 C 1719.200 2093.369, 1719.589 2083.809, 1719.255 2219.250 L 1718.948 2344 1797 2344 L 1875.053 2344 1874.760 2219.750 L 1874.468 2095.500 1872.206 2088.161 C 1866.522 2069.722, 1854.320 2053.626, 1838.055 2043.114 C 1824.395 2034.285, 1804.834 2029.953, 1788 2032.030" stroke="none" fill="#000000" fill-rule="evenodd"></path>
</svg>