<svg xmlns="http://www.w3.org/2000/svg" viewBox="0 0 2500 2500" version="1.1">
	<path d="M 693.500 522.601 C 475.991 538.110, 278.489 648.850, 151.108 826.721 C 80.862 924.811, 35.532 1041.503, 21.063 1161.500 C 14.254 1217.963, 14.254 1282.037, 21.063 1338.500 C 48.550 1566.451, 183.065 1768.522, 384 1883.711 C 466.140 1930.799, 558.709 1961.617, 653.500 1973.435 C 700.407 1979.282, 670.133 1979, 1250 1979 C 1830.058 1979, 1799.768 1979.283, 1846.500 1973.418 C 2048.355 1948.081, 2229.667 1839.762, 2348.892 1673.279 C 2419.110 1575.228, 2464.405 1458.621, 2478.931 1338.500 C 2485.748 1282.136, 2485.748 1217.864, 2478.931 1161.500 C 2451.344 933.379, 2316.949 731.486, 2116 616.289 C 2033.818 569.177, 1941.785 538.543, 1846.500 526.582 C 1799.697 520.708, 1830.559 520.989, 1247.226 521.123 C 808.346 521.224, 709.094 521.489, 693.500 522.601 M 725 677.672 C 613.257 681.428, 504.148 718.276, 413.500 782.871 C 355.344 824.312, 301.392 880.653, 263.514 939.500 C 212.026 1019.491, 182.064 1108.394, 173.866 1205.500 C 172.342 1223.549, 172.342 1276.451, 173.866 1294.500 C 182.806 1400.398, 217.853 1497.176, 277.778 1581.444 C 319.329 1639.873, 377.369 1695.190, 436.500 1732.719 C 517.292 1783.994, 604.573 1813.127, 701.500 1821.172 C 724.699 1823.098, 1774.761 1823.141, 1798 1821.217 C 1895.256 1813.167, 1983.363 1783.790, 2063.500 1732.694 C 2123.433 1694.480, 2179.755 1640.808, 2222.158 1581.500 C 2276.295 1505.779, 2312.128 1413.569, 2323.387 1321 C 2328.880 1275.839, 2328.880 1224.161, 2323.387 1179 C 2309.679 1066.298, 2262.294 960.611, 2186.416 873.500 C 2125.950 804.083, 2048.829 749.755, 1963.500 716.468 C 1911.605 696.223, 1862.925 684.976, 1800.500 678.809 C 1791.434 677.914, 1659.508 677.595, 1261 677.505 C 970.875 677.440, 729.675 677.515, 725 677.672 M 758 770.676 C 639.932 779.238, 533.234 827.752, 450.493 910.493 C 398.441 962.544, 360.564 1023, 336.146 1093 C 306.765 1177.228, 301.852 1270.059, 322.096 1358.461 C 334.069 1410.745, 356.683 1464.363, 385.782 1509.461 C 459.087 1623.071, 576.827 1701.104, 708.500 1723.344 C 737.982 1728.323, 758.512 1730, 790 1730 C 866.559 1730, 933.985 1714.305, 1002.500 1680.534 C 1051.455 1656.405, 1090.919 1628.130, 1129.524 1589.524 C 1167.574 1551.475, 1195.788 1512.276, 1219.921 1463.933 C 1241.407 1420.891, 1255.614 1377.627, 1263.409 1331.498 C 1268.747 1299.910, 1269.475 1290.129, 1269.475 1250 C 1269.475 1209.871, 1268.747 1200.090, 1263.409 1168.502 C 1252.420 1103.474, 1226.299 1038.096, 1189.095 982.500 C 1135.702 902.714, 1056.646 839.029, 966.500 803.189 C 922.403 785.656, 874.954 774.815, 825.605 770.998 C 813.899 770.092, 768.997 769.878, 758 770.676 M 770 926.616 C 701.828 931.523, 640.600 955.278, 587.500 997.422 C 575.239 1007.153, 553.411 1028.384, 543.209 1040.500 C 501.266 1090.313, 476.981 1146.127, 468.370 1212.500 C 466.050 1230.375, 466.050 1269.625, 468.370 1287.500 C 473.751 1328.976, 483.943 1362.412, 502.052 1398 C 525.281 1443.650, 562.184 1485.785, 605.500 1516.117 C 631.870 1534.582, 666.549 1551.247, 697.888 1560.513 C 728.781 1569.648, 755.717 1573.421, 790 1573.414 C 819.063 1573.409, 838.306 1571.322, 863.516 1565.443 C 955.079 1544.087, 1034.450 1482.462, 1077.090 1399.617 C 1102.243 1350.748, 1113.479 1304.550, 1113.479 1250 C 1113.479 1196.266, 1102.725 1151.199, 1078.377 1102.893 C 1056.520 1059.529, 1023.096 1019.917, 983.252 990.155 C 944.362 961.105, 895.734 939.909, 848.500 931.422 C 826.796 927.522, 789.304 925.227, 770 926.616" stroke="none" fill="#000000" fill-rule="evenodd"></path>
</svg>