<svg xmlns="http://www.w3.org/2000/svg" viewBox="0 0 2500 2500" version="1.1">
	<path d="M 693.500 522.601 C 475.991 538.110, 278.489 648.850, 151.108 826.721 C 80.867 924.803, 35.531 1041.512, 21.063 1161.500 C 14.254 1217.963, 14.254 1282.037, 21.063 1338.500 C 48.549 1566.449, 183.067 1768.524, 384 1883.711 C 466.140 1930.799, 558.709 1961.617, 653.500 1973.435 C 700.407 1979.282, 670.133 1979, 1250 1979 C 1830.058 1979, 1799.768 1979.283, 1846.500 1973.418 C 2048.365 1948.079, 2229.661 1839.770, 2348.892 1673.279 C 2419.110 1575.228, 2464.405 1458.621, 2478.931 1338.500 C 2485.748 1282.136, 2485.748 1217.864, 2478.931 1161.500 C 2451.344 933.379, 2316.949 731.486, 2116 616.289 C 2033.818 569.177, 1941.785 538.543, 1846.500 526.582 C 1799.697 520.708, 1830.559 520.989, 1247.226 521.123 C 808.346 521.224, 709.094 521.489, 693.500 522.601 M 725 677.672 C 613.257 681.428, 504.148 718.276, 413.500 782.871 C 355.344 824.312, 301.392 880.653, 263.514 939.500 C 217.550 1010.910, 187.436 1093.230, 177.061 1175.834 C 173.578 1203.566, 172.674 1218.869, 172.679 1250 C 172.684 1281.458, 173.607 1297.162, 177.038 1324.166 C 188.700 1415.946, 223.663 1505.226, 277.790 1581.444 C 319.184 1639.734, 377.362 1695.186, 436.500 1732.719 C 517.292 1783.994, 604.573 1813.127, 701.500 1821.172 C 724.699 1823.098, 1774.761 1823.141, 1798 1821.217 C 1895.256 1813.167, 1983.363 1783.790, 2063.500 1732.694 C 2123.433 1694.480, 2179.755 1640.808, 2222.158 1581.500 C 2276.295 1505.779, 2312.128 1413.569, 2323.387 1321 C 2328.880 1275.839, 2328.880 1224.161, 2323.387 1179 C 2309.679 1066.298, 2262.294 960.611, 2186.416 873.500 C 2125.950 804.083, 2048.829 749.755, 1963.500 716.468 C 1911.605 696.223, 1862.925 684.976, 1800.500 678.809 C 1791.434 677.914, 1659.508 677.595, 1261 677.505 C 970.875 677.440, 729.675 677.515, 725 677.672 M 1672.500 771.015 C 1623.453 775.212, 1576.828 785.997, 1533.500 803.170 C 1514.217 810.812, 1480.131 827.619, 1463.500 837.684 C 1427.820 859.277, 1399.562 881.389, 1370.476 910.476 C 1332.426 948.525, 1304.212 987.724, 1280.079 1036.067 C 1258.593 1079.109, 1244.386 1122.373, 1236.591 1168.502 C 1231.253 1200.090, 1230.525 1209.871, 1230.525 1250 C 1230.525 1290.129, 1231.253 1299.910, 1236.591 1331.498 C 1244.291 1377.068, 1258.268 1419.890, 1279.410 1462.687 C 1320.452 1545.769, 1383.004 1613.600, 1463.500 1662.316 C 1480.131 1672.381, 1514.217 1689.188, 1533.500 1696.830 C 1590.011 1719.227, 1647.351 1730, 1710.055 1730 C 1777.047 1730, 1837.963 1717.663, 1898.268 1691.882 C 2047.490 1628.089, 2154.796 1493.170, 2182.903 1334 C 2192.472 1279.809, 2192.472 1220.191, 2182.903 1166 C 2170.714 1096.977, 2142.194 1028.846, 2101.692 972 C 2021.849 859.938, 1900.442 788.510, 1762.500 772.442 C 1746.336 770.559, 1688.538 769.643, 1672.500 771.015 M 1691 926.585 C 1676.960 927.781, 1663.258 929.427, 1654 931.032 C 1555.055 948.176, 1467.546 1012.584, 1422.320 1101.552 C 1383.772 1177.381, 1375.725 1260.514, 1399.148 1340.939 C 1424.103 1426.623, 1484.982 1499.529, 1564.885 1539.419 C 1600.376 1557.137, 1632.903 1566.760, 1675.500 1572.146 C 1690.745 1574.073, 1731.557 1573.797, 1748.226 1571.655 C 1823.861 1561.932, 1889.182 1529.569, 1941.543 1475.875 C 1992.449 1423.674, 2021.972 1361.942, 2031.630 1287.500 C 2033.950 1269.625, 2033.950 1230.375, 2031.630 1212.500 C 2022.769 1144.200, 1996.079 1084.469, 1952.739 1035.941 C 1922.761 1002.374, 1889.584 977.219, 1850.500 958.421 C 1817.306 942.456, 1784.340 932.783, 1748.436 928.472 C 1735.948 926.973, 1700.232 925.799, 1691 926.585" stroke="none" fill="#000000" fill-rule="evenodd"></path>
</svg>