<svg xmlns="http://www.w3.org/2000/svg" xmlns:xlink="http://www.w3.org/1999/xlink" width="61px" height="61px" viewBox="0 0 61 61"><title>icon-phone-circle@60x60</title><g id="Page-1" stroke="none" stroke-width="1" fill="none" fill-rule="evenodd" stroke-linecap="round" stroke-linejoin="round"><g id="icon-phone-circle@60x60" transform="translate(2.000000, 2.000000)" stroke="#02547D" stroke-width="3.75"><path d="M33.4739992,42.3465773 L33.4939992,42.3465773 C36.6838574,44.3769287 40.8560387,43.9185501 43.5289992,41.2440773 L44.6589992,40.1165773 C45.7083538,39.0662657 45.7083538,37.364389 44.6589992,36.3140773 L39.9089992,31.5640773 C38.8586876,30.5147228 37.1568108,30.5147228 36.1064992,31.5640773 L36.1064992,31.5640773 C35.0553302,32.6137186 33.3526682,32.6137186 32.3014992,31.5640773 L24.6964992,23.9565773 C23.6471447,22.9062657 23.6471447,21.204389 24.6964992,20.1540773 L24.6964992,20.1540773 C25.7458538,19.1037657 25.7458538,17.401889 24.6964992,16.3515773 L19.9464992,11.6015773 C19.4422609,11.0931411 18.7561134,10.8067341 18.0400389,10.8057932 C17.3239644,10.8048571 16.6370685,11.0894646 16.1314992,11.5965773 L15.0014992,12.7240773 C12.3292299,15.3993416 11.8720557,19.5710568 13.9014992,22.7615773 L13.9014992,22.7790773 C19.1153768,30.4923255 25.7594191,37.1346706 33.4739992,42.3465773 L33.4739992,42.3465773 Z" id="Path"></path><path d="M50.6314992,45.0065773 C58.4590444,34.5708165 58.0840013,20.1225449 49.7255865,10.1069336 C41.3671717,0.0913222915 27.219173,-2.86288555 15.5512488,2.97107653 C3.88332465,8.80503861 -2.24210829,21.8959623 0.755331864,34.5920609 C3.75277202,47.2881595 15.0863634,56.257157 28.1314992,56.2565773 C39.1764992,56.2565773 44.2464992,50.9165773 41.1689992,42.8965773" id="Path"></path></g></g></svg>