<svg xmlns="http://www.w3.org/2000/svg" viewBox="0 0 16 16"><g transform="matrix(0.6666666666666666,0,0,0.6666666666666666,0,0)"><path d="M4.285,2.24l-.011,0A4.5,4.5,0,0,0,.75,6.635v.89a1.5,1.5,0,0,0,1.5,1.5H6a1.5,1.5,0,0,0,1.5-1.5h0A1.5,1.5,0,0,1,9,6.025h6a1.5,1.5,0,0,1,1.5,1.5h0a1.5,1.5,0,0,0,1.5,1.5h3.75a1.5,1.5,0,0,0,1.5-1.5v-.89a4.5,4.5,0,0,0-3.524-4.393l-.011,0A40.593,40.593,0,0,0,4.285,2.24Z" fill="none" stroke="#153965" stroke-linecap="round" stroke-linejoin="round" stroke-width="1.5"></path><path d="M3.75,12.025v6a4.5,4.5,0,0,0,4.5,4.5h7.5a4.5,4.5,0,0,0,4.5-4.5v-6" fill="none" stroke="#153965" stroke-linecap="round" stroke-linejoin="round" stroke-width="1.5"></path><path d="M7.875 13.525L7.875 13.525" fill="none" stroke="#153965" stroke-linecap="round" stroke-linejoin="round" stroke-width="1.5"></path><path d="M7.875,13.525a.375.375,0,1,0,.375.375.375.375,0,0,0-.375-.375" fill="none" stroke="#153965" stroke-linecap="round" stroke-linejoin="round" stroke-width="1.5"></path><path d="M12 13.525L12 13.525" fill="none" stroke="#153965" stroke-linecap="round" stroke-linejoin="round" stroke-width="1.5"></path><path d="M12,13.525a.375.375,0,1,0,.375.375A.375.375,0,0,0,12,13.525" fill="none" stroke="#153965" stroke-linecap="round" stroke-linejoin="round" stroke-width="1.5"></path><path d="M16.125 13.525L16.125 13.525" fill="none" stroke="#153965" stroke-linecap="round" stroke-linejoin="round" stroke-width="1.5"></path><path d="M16.125,13.525a.375.375,0,1,0,.375.375.375.375,0,0,0-.375-.375" fill="none" stroke="#153965" stroke-linecap="round" stroke-linejoin="round" stroke-width="1.5"></path><path d="M7.875 17.275L7.875 17.275" fill="none" stroke="#153965" stroke-linecap="round" stroke-linejoin="round" stroke-width="1.5"></path><path d="M7.875,17.275a.375.375,0,1,0,.375.375.375.375,0,0,0-.375-.375" fill="none" stroke="#153965" stroke-linecap="round" stroke-linejoin="round" stroke-width="1.5"></path><path d="M12 17.275L12 17.275" fill="none" stroke="#153965" stroke-linecap="round" stroke-linejoin="round" stroke-width="1.5"></path><path d="M12,17.275a.375.375,0,1,0,.375.375A.375.375,0,0,0,12,17.275" fill="none" stroke="#153965" stroke-linecap="round" stroke-linejoin="round" stroke-width="1.5"></path><path d="M16.125 17.275L16.125 17.275" fill="none" stroke="#153965" stroke-linecap="round" stroke-linejoin="round" stroke-width="1.5"></path><path d="M16.125,17.275a.375.375,0,1,0,.375.375.375.375,0,0,0-.375-.375" fill="none" stroke="#153965" stroke-linecap="round" stroke-linejoin="round" stroke-width="1.5"></path></g></svg>